<svg id="Layer_1" data-name="Layer 1" xmlns="http://www.w3.org/2000/svg" viewBox="0 0 607 400"><defs><style>.cls-1{fill:#c01813;}.cls-2{fill:#b5c8c8;}</style></defs><title>404</title><path class="cls-1" d="M198.05,245.26H179a5.18,5.18,0,0,0-5.18,5.18V291.5a5.18,5.18,0,0,1-5.18,5.18H126.08a5.18,5.18,0,0,1-5.18-5.18V250.44a5.18,5.18,0,0,0-5.18-5.18H30.14A5.17,5.17,0,0,1,25,240.08V206.25a5.16,5.16,0,0,1,1-3.09l91.61-123.1A5.19,5.19,0,0,1,121.75,78H168.6a5.17,5.17,0,0,1,5.18,5.18V200.82A5.18,5.18,0,0,0,179,206h19.09a5.18,5.18,0,0,1,5.18,5.18v28.9A5.18,5.18,0,0,1,198.05,245.26ZM120.9,200.82V147.38a5.18,5.18,0,0,0-9.33-3.09L71.83,197.73A5.18,5.18,0,0,0,76,206h39.74A5.18,5.18,0,0,0,120.9,200.82Z"/><path class="cls-2" d="M389,187q0,28.28-4.54,49.51t-14.5,35.45A62.87,62.87,0,0,1,344,293.38q-16,7.25-39.11,7.25t-39-7.25a63,63,0,0,1-26.07-21.75q-10-14.36-14.5-35.38t-4.54-49.14q0-29,4.46-49.52t14.87-35.3a62.67,62.67,0,0,1,26.37-21.6q16.11-7.11,38.38-7.11,23.58,0,39.33,7.4a64.12,64.12,0,0,1,25.85,22q10,14.37,14.43,35.45T389,187ZM334,187q0-40.43-6.67-56.76t-22.48-16.34q-15.67,0-22.41,16.34t-6.74,57.05q0,39.85,6.74,56.47t22.41,16.63q15.67,0,22.41-16.63T334,187Z"/><path class="cls-2" d="M580.08,245.26H561a5.18,5.18,0,0,0-5.18,5.18V291.5a5.17,5.17,0,0,1-5.18,5.18H508.11a5.18,5.18,0,0,1-5.18-5.18V250.44a5.18,5.18,0,0,0-5.18-5.18H412.17a5.18,5.18,0,0,1-5.18-5.18V206.25a5.23,5.23,0,0,1,1-3.09l91.61-123.1A5.19,5.19,0,0,1,503.78,78h46.85a5.17,5.17,0,0,1,5.18,5.18V200.82A5.18,5.18,0,0,0,561,206h19.09a5.18,5.18,0,0,1,5.18,5.18v28.9A5.18,5.18,0,0,1,580.08,245.26Zm-77.15-44.44V147.38a5.18,5.18,0,0,0-9.33-3.09l-39.74,53.44A5.18,5.18,0,0,0,458,206h39.74A5.18,5.18,0,0,0,502.93,200.82Z"/></svg>