<svg id="Layer_2" data-name="Layer 2" xmlns="http://www.w3.org/2000/svg" viewBox="0 0 607 400"><defs><style>.cls-1{fill:#c01813;}.cls-2{fill:#b5c8c8;}</style></defs><title>500</title><text/><path class="cls-1" d="M195.52,224.66a84.39,84.39,0,0,1-5.78,31.5,67.36,67.36,0,0,1-17.36,25,80.93,80.93,0,0,1-27.17,16.11Q129.46,303,106.46,303q-24.31-.15-41.82-4.17a179.09,179.09,0,0,1-26.48-8,3.93,3.93,0,0,1-2.45-3.65V246.17a3.93,3.93,0,0,1,3.93-3.93h0a3.93,3.93,0,0,1,2,.52l8.33,4.75a100.44,100.44,0,0,0,13.47,6.16,123.72,123.72,0,0,0,15.75,5.05,74,74,0,0,0,17.8,2,86.63,86.63,0,0,0,18.31-2.13q9.81-2.11,15.82-7.69a33.73,33.73,0,0,0,6.88-9.81q2.49-5.41,2.49-14.5a25.16,25.16,0,0,0-11.42-22,42.07,42.07,0,0,0-18-6.37,143.17,143.17,0,0,0-18.16-1.39,142.12,142.12,0,0,0-23.37,1.9q-11,1.86-19.23,4a4,4,0,0,1-1,.13H49a3.94,3.94,0,0,1-3.94-3.94V84.31A3.93,3.93,0,0,1,49,80.38H185.58a3.94,3.94,0,0,1,3.94,3.93V117.6a3.94,3.94,0,0,1-3.94,3.94H100.73a3.93,3.93,0,0,0-3.94,3.93V153.7a3.94,3.94,0,0,0,4.13,3.93q2.89-.15,6.35-.28c4-.14,7.19-.22,9.44-.22a126.08,126.08,0,0,1,29,3.15A75.41,75.41,0,0,1,169.3,170a55,55,0,0,1,19.34,21.61Q195.52,205.18,195.52,224.66Z"/><path class="cls-2" d="M388.73,189.36q0,28.27-4.54,49.51t-14.5,35.45a62.74,62.74,0,0,1-25.93,21.46q-16,7.26-39.11,7.25-23,0-39-7.25A63,63,0,0,1,239.61,274q-10-14.36-14.5-35.38t-4.54-49.14q0-29,4.47-49.52t14.87-35.3a62.64,62.64,0,0,1,26.36-21.6Q282.38,76,304.65,76q23.58,0,39.33,7.4a64.08,64.08,0,0,1,25.86,22q10,14.37,14.43,35.45T388.73,189.36Zm-54.93,0q0-40.43-6.66-56.76t-22.49-16.34q-15.67,0-22.41,16.34t-6.74,57.05q0,39.85,6.74,56.47t22.41,16.63q15.68,0,22.41-16.63T333.8,189.36Z"/><path class="cls-2" d="M579.75,189.36q0,28.27-4.54,49.51t-14.5,35.45a62.87,62.87,0,0,1-25.93,21.46q-16,7.26-39.11,7.25t-39-7.25A63,63,0,0,1,430.63,274q-10-14.36-14.5-35.38t-4.54-49.14q0-29,4.46-49.52t14.87-35.3a62.67,62.67,0,0,1,26.37-21.6Q473.4,76,495.67,76q23.58,0,39.33,7.4a64,64,0,0,1,25.85,22q10,14.37,14.43,35.45T579.75,189.36Zm-54.93,0q0-40.43-6.67-56.76t-22.48-16.34q-15.68,0-22.41,16.34t-6.74,57.05q0,39.85,6.74,56.47t22.41,16.63q15.68,0,22.41-16.63T524.82,189.36Z"/></svg>