<svg xmlns="http://www.w3.org/2000/svg" viewBox="0 0 1920 400"><defs><style>.a{fill:#0065b4;}.b{fill:#b5c8c8;}</style></defs><title>Kara-light</title><path class="a" d="M540.46,84.72h54.93A2.64,2.64,0,0,1,598,87.36v82.06h0a2.63,2.63,0,0,0,2.19-1.16L656,85.88a2.63,2.63,0,0,1,2.19-1.16h59.18a2.64,2.64,0,0,1,2.13,4.2L655.77,175.7a2.65,2.65,0,0,0-.14,2.93l77.89,129.59a2.64,2.64,0,0,1-2.26,4H671.65a2.65,2.65,0,0,1-2.29-1.32l-47.57-82.6a2.65,2.65,0,0,0-4.45-.2l-18.83,26.74a2.58,2.58,0,0,0-.49,1.52v53.22a2.64,2.64,0,0,1-2.63,2.64H540.46a2.64,2.64,0,0,1-2.64-2.64V87.36A2.64,2.64,0,0,1,540.46,84.72Z"/><path class="b" d="M889.53,263.92H830.11a2.69,2.69,0,0,0-2.62,2.09l-10.24,44.13a2.68,2.68,0,0,1-2.62,2.08H758.8a2.69,2.69,0,0,1-2.57-3.47L823.89,86.63a2.69,2.69,0,0,1,2.57-1.91h68.82a2.68,2.68,0,0,1,2.57,1.91l67.67,222.12a2.69,2.69,0,0,1-2.58,3.47H905a2.69,2.69,0,0,1-2.62-2.08L892.16,266A2.71,2.71,0,0,0,889.53,263.92ZM877.4,217.37A2.69,2.69,0,0,0,880,214l-3-12.42c-5.54-21.49-11.09-48.81-16.63-71.44a.88.88,0,0,0-.86-.66h0a.87.87,0,0,0-.85.69c-4.87,22.95-10.41,49.93-16,71.41l-3,12.42a2.68,2.68,0,0,0,2.61,3.33Z"/><path class="b" d="M1110,310.74l-37.68-73.34a2.71,2.71,0,0,0-2.42-1.48H1051.2a2.73,2.73,0,0,0-2.73,2.73V309.5a2.72,2.72,0,0,1-2.72,2.72H991a2.72,2.72,0,0,1-2.73-2.72v-222A2.73,2.73,0,0,1,991,84.72h83.37c49,0,91,16.8,91,73.5,0,31.4-13.68,52.38-34.44,64.51a2.71,2.71,0,0,0-1,3.66l45.75,81.78a2.72,2.72,0,0,1-2.38,4.05h-60.88A2.74,2.74,0,0,1,1110,310.74Zm-61.54-125.15a2.73,2.73,0,0,0,2.73,2.73h19c23.8,0,36.4-10.5,36.4-30.1s-12.6-25.9-36.4-25.9h-19a2.73,2.73,0,0,0-2.73,2.73Z"/><path class="b" d="M1332,263.92H1272.4a2.56,2.56,0,0,0-2.49,2l-10.28,44.35a2.56,2.56,0,0,1-2.49,2h-55.9a2.71,2.71,0,0,1-2.6-3.51l67.68-222.18a2.54,2.54,0,0,1,2.44-1.81h69a2.55,2.55,0,0,1,2.44,1.81L1408,308.93a2.55,2.55,0,0,1-2.45,3.29H1347.3a2.56,2.56,0,0,1-2.49-2l-10.28-44.35A2.56,2.56,0,0,0,1332,263.92ZM1320,217.37a2.56,2.56,0,0,0,2.48-3.16l-3.08-12.59c-5.55-21.49-11.09-48.81-16.64-71.44a.87.87,0,0,0-.85-.66h0a.88.88,0,0,0-.86.69c-4.86,22.95-10.41,49.93-16,71.41L1282,214.21a2.56,2.56,0,0,0,2.48,3.16Z"/></svg>